<svg xmlns="http://www.w3.org/2000/svg" xmlns:xlink="http://www.w3.org/1999/xlink" viewBox="0 0 196 196"><defs><style>.cls-1{isolation:isolate;}.cls-10,.cls-11,.cls-12,.cls-13,.cls-2,.cls-3,.cls-4,.cls-5,.cls-6,.cls-7,.cls-8{fill-rule:evenodd;}.cls-2{fill:url(#linear-gradient);}.cls-3{fill:url(#linear-gradient-2);}.cls-4{fill:url(#linear-gradient-3);}.cls-5{fill:url(#linear-gradient-4);}.cls-6{fill:url(#linear-gradient-5);}.cls-7{fill:url(#linear-gradient-6);}.cls-8{fill:url(#linear-gradient-7);}.cls-9{opacity:0.31;mix-blend-mode:screen;}.cls-10{fill:url(#linear-gradient-8);}.cls-11{fill:url(#linear-gradient-9);}.cls-12{fill:url(#linear-gradient-10);}.cls-13{fill:url(#linear-gradient-11);}</style><linearGradient id="linear-gradient" x1="163.47" y1="180.06" x2="79.96" y2="42.95" gradientUnits="userSpaceOnUse"><stop offset="0" stop-color="#e9018b"/><stop offset="0.12" stop-color="#e1038b"/><stop offset="0.3" stop-color="#cc098c"/><stop offset="0.52" stop-color="#aa128e"/><stop offset="0.77" stop-color="#7a1e90"/><stop offset="1" stop-color="#472c93"/></linearGradient><linearGradient id="linear-gradient-2" x1="194.36" y1="114.98" x2="93.84" y2="113.95" xlink:href="#linear-gradient"/><linearGradient id="linear-gradient-3" x1="101.67" y1="33.04" x2="56.82" y2="163.45" xlink:href="#linear-gradient"/><linearGradient id="linear-gradient-4" x1="-47.93" y1="5.18" x2="86.66" y2="106.95" gradientUnits="userSpaceOnUse"><stop offset="0" stop-color="#ff108e"/><stop offset="0.19" stop-color="#f7148f"/><stop offset="0.47" stop-color="#e21f91"/><stop offset="0.81" stop-color="#c03094"/><stop offset="1" stop-color="#aa3b96"/></linearGradient><linearGradient id="linear-gradient-5" x1="-11.7" y1="222.67" x2="92.68" y2="123.78" xlink:href="#linear-gradient"/><linearGradient id="linear-gradient-6" x1="237.54" y1="219.36" x2="128.19" y2="107.49" xlink:href="#linear-gradient-4"/><linearGradient id="linear-gradient-7" x1="199.17" y1="-39.96" x2="110.78" y2="61.37" xlink:href="#linear-gradient"/><linearGradient id="linear-gradient-8" x1="2.1" y1="35.31" x2="47.81" y2="69.88" xlink:href="#linear-gradient-4"/><linearGradient id="linear-gradient-9" x1="30.39" y1="182.52" x2="60.99" y2="153.53" xlink:href="#linear-gradient"/><linearGradient id="linear-gradient-10" x1="186.73" y1="168.48" x2="155.25" y2="136.27" xlink:href="#linear-gradient-4"/><linearGradient id="linear-gradient-11" x1="162.12" y1="8.03" x2="135.7" y2="38.32" xlink:href="#linear-gradient"/></defs><g class="cls-1"><g id="Capa_2" data-name="Capa 2"><g id="OBJECTS"><polygon class="cls-2" points="139.43 141.07 120.98 141.07 87.56 54.93 105.99 54.93 139.43 141.07"/><polygon class="cls-3" points="79.26 121.95 113.56 121.95 113.73 121.95 132 121.95 128.71 113.44 125.8 105.94 125.7 105.94 107.53 105.94 107.35 105.94 85.47 105.94 84.65 105.94 67.03 105.94 60.82 121.95 78.82 121.95 79.26 121.95"/><polygon class="cls-4" points="53.39 141.07 71.84 141.07 105.26 54.93 86.84 54.93 53.39 141.07"/><path class="cls-5" d="M98,19.35a80.4,80.4,0,0,0-17.46-1.91A80.51,80.51,0,0,0,0,97.12c0,.27,0,.56,0,.89,0,.61,0,1.24,0,1.86A98,98,0,0,0,98,196,80.56,80.56,0,1,1,145.58,50.44,80.55,80.55,0,0,0,98,19.35Z"/><path class="cls-6" d="M196,98A80.56,80.56,0,1,1,50.44,50.44,80.54,80.54,0,0,0,98,196c.37,0,.76,0,1.15,0h.92A98,98,0,0,0,196,98Z"/><path class="cls-7" d="M196,96.54v.34c0,.37,0,.74,0,1.13A80.54,80.54,0,0,1,50.44,145.58,80.58,80.58,0,0,0,176.67,98a82.06,82.06,0,0,0,1.89-17.46A80.54,80.54,0,0,0,98,0a98,98,0,0,1,98,96c0,.17,0,.37,0,.55Z"/><path class="cls-8" d="M85.73.94A78,78,0,0,1,95.94,0,80.32,80.32,0,0,0,85.73.94ZM176.67,98a82.06,82.06,0,0,0,1.89-17.46A80.54,80.54,0,0,0,98,0c-.37,0-.73,0-1.09,0h-.87A98,98,0,0,0,0,98a80.58,80.58,0,0,1,89.27-80.1A81.66,81.66,0,0,1,98,19.35a80.59,80.59,0,0,1,47.57,126.23A80.69,80.69,0,0,0,176.67,98Z"/><g class="cls-9"><path class="cls-10" d="M11.6,127.66A91.39,91.39,0,0,1,6.71,99.74c0-.6,0-1.17,0-1.73,0-.18,0-.34,0-.5v-.32A73.84,73.84,0,0,1,80.55,24.12a74,74,0,0,1,25.24,4.43q-3.87-.35-7.78-.34A87.28,87.28,0,0,0,12.82,96.57,88.69,88.69,0,0,0,11.26,106a90.94,90.94,0,0,0-.5,9.45A88.28,88.28,0,0,0,11.6,127.66Z"/><path class="cls-11" d="M98,189.32a74.23,74.23,0,0,1-59.64-30.25,73.33,73.33,0,0,1-14.25-43.62,74.39,74.39,0,0,1,.43-8,75.6,75.6,0,0,1,1.32-8,72.7,72.7,0,0,1,2.68-9.22c-.23,2.57-.34,5.17-.34,7.78A87.26,87.26,0,0,0,96.57,183.2a87.27,87.27,0,0,0,18.88,2,88.54,88.54,0,0,0,12.22-.84,91.5,91.5,0,0,1-27.73,4.89H98Z"/><path class="cls-12" d="M115.45,171.88a74.26,74.26,0,0,1-8-.43,72.93,72.93,0,0,1-17.27-4c2.59.23,5.21.34,7.84.34a87.21,87.21,0,0,0,85.18-68.34,86.81,86.81,0,0,0,2.05-18.9,88.28,88.28,0,0,0-.84-12.21,91.46,91.46,0,0,1,4.89,27.78v1c0,.28,0,.56,0,.85a74.2,74.2,0,0,1-30.25,59.62A73.33,73.33,0,0,1,115.45,171.88Z"/><path class="cls-13" d="M167.45,105.84q.35-3.89.34-7.83A87.24,87.24,0,0,0,99.45,12.82a86,86,0,0,0-18.9-2.06,88.1,88.1,0,0,0-12.19.84A90.91,90.91,0,0,1,86.71,7.38l0,.16a74.8,74.8,0,0,1,8.86-.81l.78,0H98a74.2,74.2,0,0,1,59.62,30.25,73.33,73.33,0,0,1,14.25,43.62,74.42,74.42,0,0,1-1.74,16A73,73,0,0,1,167.45,105.84Z"/></g></g></g></g></svg>