<svg xmlns="http://www.w3.org/2000/svg" viewBox="0 0 123.55 120.51"><defs><style>.cls-1{fill:#1d1d1b;}.cls-2,.cls-6,.cls-8,.cls-9{fill:none;}.cls-2,.cls-3,.cls-6,.cls-8,.cls-9{stroke:#575756;}.cls-2,.cls-3,.cls-4,.cls-6,.cls-8,.cls-9{stroke-miterlimit:10;}.cls-2{stroke-width:0.58px;}.cls-3{fill:#9fd8f3;stroke-width:1.26px;}.cls-4{fill:#fff;stroke:#3c3c3b;stroke-width:1.5px;}.cls-5{fill:#009fe3;}.cls-6{stroke-width:0.75px;}.cls-7{fill:#3c3c3b;}.cls-8{stroke-width:1.24px;}.cls-9{stroke-width:0.84px;}</style></defs><g id="Capa_2" data-name="Capa 2"><g id="Capa_1-2" data-name="Capa 1"><path class="cls-1" d="M111.32,80.94c-.93,0-.74,1.36.08,1.36S112.14,80.94,111.32,80.94Z"/><text/><path class="cls-2" d="M30.7,30A2.36,2.36,0,0,1,35,28.21"/><ellipse class="cls-3" cx="61.77" cy="60.26" rx="61.14" ry="59.63"/><circle class="cls-4" cx="61.79" cy="59.53" r="55.07"/><path class="cls-5" d="M28.79,80.36a3.45,3.45,0,0,1-1.11,1,4.64,4.64,0,0,1-1.55.51,3,3,0,0,1-1.82-.16,1.44,1.44,0,0,1-.83-1.14,1.66,1.66,0,0,1,.41-1.44,2.46,2.46,0,0,1,1.52-.79,3.88,3.88,0,0,1,1.27,0,5.3,5.3,0,0,1,1.36.42c.09-.39.18-.89.27-1.49s.16-1.4.24-2.39a2.47,2.47,0,0,1-1.33-.26,1.16,1.16,0,0,1-.57-.87,1.1,1.1,0,0,1,.07-.71.68.68,0,0,1,.47-.37,1.28,1.28,0,0,0,.53.75,1.89,1.89,0,0,0,1,.26,4.65,4.65,0,0,1,.78-2.2,2.31,2.31,0,0,1,1.54-1,1.74,1.74,0,0,1,1.19.16,1.27,1.27,0,0,1,.55.93,2.14,2.14,0,0,1-.54,1.81,4,4,0,0,1-2,1.23,19,19,0,0,1-.24,2.7,9,9,0,0,1-.57,2,4.5,4.5,0,0,0,1.31.5,4.22,4.22,0,0,0,1.36.09l-.1.92h-.08a4.66,4.66,0,0,1-1.58,0A5.27,5.27,0,0,1,28.79,80.36Zm-1.22-.58a3.54,3.54,0,0,0-1-.34,3.49,3.49,0,0,0-1,0,1.53,1.53,0,0,0-.76.33.63.63,0,0,0-.22.57.61.61,0,0,0,.41.48,1.85,1.85,0,0,0,.93,0,2.37,2.37,0,0,0,.93-.35A2.69,2.69,0,0,0,27.57,79.78Zm2.69-6.43a2.62,2.62,0,0,0,1.12-.82,1.28,1.28,0,0,0,.35-1,.41.41,0,0,0-.16-.29.43.43,0,0,0-.34-.06c-.26,0-.48.25-.64.62A4.59,4.59,0,0,0,30.26,73.35Z"/><path class="cls-5" d="M36.66,75.94a.85.85,0,0,1-.54-.16.75.75,0,0,1-.25-.48,1.11,1.11,0,0,1,.14-.81.83.83,0,0,1,.61-.41.8.8,0,0,1,.75.24,1.74,1.74,0,0,1,.4,1,5.36,5.36,0,0,1,0,1.65,5.6,5.6,0,0,1-.47,1.62,3.6,3.6,0,0,1-.87,1.26,2.15,2.15,0,0,1-1.15.56,2.58,2.58,0,0,1-.83,0,1.45,1.45,0,0,1-.65-.27,4.16,4.16,0,0,1-.85.47,4.69,4.69,0,0,1-1,.3l.12-.92a4.4,4.4,0,0,0,.64-.2,2.27,2.27,0,0,0,.48-.29A2.8,2.8,0,0,1,33,79a3.66,3.66,0,0,1-.12-.5,4.08,4.08,0,0,1,0-1.55,4.69,4.69,0,0,1,.6-1.52,3.72,3.72,0,0,1,.94-1,2.65,2.65,0,0,1,1.13-.52.37.37,0,0,1,.24,0,.21.21,0,0,1,.11.15.94.94,0,0,1-.25.51,5.6,5.6,0,0,0-.4.6,7,7,0,0,0-.77,1.88,4.06,4.06,0,0,0-.09,1.68.86.86,0,0,0,.25.54.57.57,0,0,0,.48.13c.45-.08.84-.47,1.17-1.18A4,4,0,0,0,36.66,75.94Z"/><path class="cls-5" d="M38,79.9l.11-.92c.41-.12.9-.6,1.46-1.45a19,19,0,0,0,1.64-3.29,1,1,0,0,1-.24-.26,1,1,0,0,1-.11-.34,1.15,1.15,0,0,1,.25-.94,1.37,1.37,0,0,1,.89-.52.79.79,0,0,1,.56.08.62.62,0,0,1,.27.44,1.08,1.08,0,0,1-.08.58,2.17,2.17,0,0,1-.4.64,5,5,0,0,1,1,1A2.56,2.56,0,0,1,43.78,76a2.74,2.74,0,0,1,0,1,2.43,2.43,0,0,1-.36.9,1.35,1.35,0,0,0,.37.07,3.08,3.08,0,0,0,.48,0l.14,0-.12.92-.19,0a3.48,3.48,0,0,1-.72,0,3.72,3.72,0,0,1-.71-.11,4.48,4.48,0,0,1-.73.36,2.75,2.75,0,0,1-.69.19,2.8,2.8,0,0,1-1,0,2.28,2.28,0,0,1-.84-.34,3.15,3.15,0,0,1-.64.5A3.31,3.31,0,0,1,38,79.9Zm2.35-2.06a1,1,0,0,1,.48.21,1.45,1.45,0,0,1,.38.43,1.51,1.51,0,0,0,.87-.77,2.19,2.19,0,0,0,.15-1.32,4,4,0,0,0-.17-.61,5.51,5.51,0,0,0-.3-.71,6.86,6.86,0,0,1-.53,1.32A12,12,0,0,1,40.31,77.84Z"/><path class="cls-5" d="M51.51,80.88a2.24,2.24,0,0,1-1.92-.49,3.38,3.38,0,0,1-1-2.07,9.8,9.8,0,0,1,.24-3.8,15.13,15.13,0,0,1,1.65-4.14,10.51,10.51,0,0,1,2-2.53,4.12,4.12,0,0,1,2-1.12,1.67,1.67,0,0,1,1.31.25,1.76,1.76,0,0,1,.64,1.21,3,3,0,0,1-.12,1.46A4.24,4.24,0,0,1,55.49,71a4.6,4.6,0,0,1-.74.66,1.72,1.72,0,0,1-.65.32c-.12,0-.27,0-.44-.22a1,1,0,0,1-.28-.47c0-.11.1-.24.37-.39a5.64,5.64,0,0,0,.65-.43,2.48,2.48,0,0,0,.71-1,1.91,1.91,0,0,0,.13-1.08.91.91,0,0,0-.24-.54.55.55,0,0,0-.48-.12,2.4,2.4,0,0,0-1.26.92,10.93,10.93,0,0,0-1.36,2.2,17.41,17.41,0,0,0-1.4,3.93,8.64,8.64,0,0,0-.2,3.24,1.86,1.86,0,0,0,.43,1,.88.88,0,0,0,.81.24,2.51,2.51,0,0,0,1.3-.72A6.49,6.49,0,0,0,54,77a3.49,3.49,0,0,0,.21-.46c.1-.27.21-.42.32-.44a.65.65,0,0,1,.44.16.6.6,0,0,1,.29.37,1,1,0,0,1-.11.49,5.46,5.46,0,0,1-.4.82A8.7,8.7,0,0,1,53.2,80,3.31,3.31,0,0,1,51.51,80.88Z"/><path class="cls-5" d="M57.28,76.14a2,2,0,0,1-.6.56,2.63,2.63,0,0,1-.84.33l.11-.92a1.55,1.55,0,0,0,1-.75,5.77,5.77,0,0,0,.57-2l.68-4.48c.05-.32.1-.72.14-1.19.08-.82.37-1.27.88-1.35a2.64,2.64,0,0,1,.73,0,.26.26,0,0,1,.23.21,2.78,2.78,0,0,1-.13.84l-.09.41-1.27,5.75A11.49,11.49,0,0,1,60.2,70.8a2.59,2.59,0,0,1,1.55-1,.94.94,0,0,1,.68.12.79.79,0,0,1,.33.57,9.8,9.8,0,0,1-.39,2.47l-.09.43a6,6,0,0,0-.14.77,2.33,2.33,0,0,0,0,.5.38.38,0,0,0,.24.31,2.22,2.22,0,0,0,.76,0l-.11.92-.15,0a3.41,3.41,0,0,1-1.63,0,1,1,0,0,1-.66-.82,3.38,3.38,0,0,1,0-.9c.07-.4.18-.93.34-1.58l0-.13a3.37,3.37,0,0,0,.19-.94.24.24,0,0,0-.08-.16.32.32,0,0,0-.18,0q-.39.06-1.05,1.17a10.61,10.61,0,0,0-1,2.62c0,.19-.1.44-.15.72a1.07,1.07,0,0,1-1,.92.78.78,0,0,1-.37,0,.18.18,0,0,1-.14-.15,1.21,1.21,0,0,1,0-.18A2.92,2.92,0,0,1,57.28,76.14Z"/><path class="cls-5" d="M68.35,72.59a6.8,6.8,0,0,1-1.1,2,2.29,2.29,0,0,1-1.39.81,1.93,1.93,0,0,1-.68,0,1,1,0,0,1-.49-.23,3,3,0,0,1-.71.39,5,5,0,0,1-1,.27l.12-.92a3.44,3.44,0,0,0,.64-.2,2.24,2.24,0,0,0,.48-.28,2.29,2.29,0,0,1-.08-.28,2.55,2.55,0,0,1-.07-.32,3.42,3.42,0,0,1,.05-1.22,5.63,5.63,0,0,1,.45-1.37,5.08,5.08,0,0,1,1.23-1.67,3.11,3.11,0,0,1,1.58-.76,1.94,1.94,0,0,1,.76,0,1.69,1.69,0,0,1,.65.31l.05-.31a.82.82,0,0,1,.12-.37.33.33,0,0,1,.23-.11,2,2,0,0,1,.82,0c.25.07.38.17.4.31a3,3,0,0,1-.18.66c-.13.4-.24.77-.33,1.13a17.3,17.3,0,0,0-.38,1.79,4,4,0,0,0,0,1.12.39.39,0,0,0,.22.34,2.1,2.1,0,0,0,.78,0l-.12.92-.12,0a3.48,3.48,0,0,1-1.49,0,.74.74,0,0,1-.54-.66,2.09,2.09,0,0,1,0-.57A6.42,6.42,0,0,1,68.35,72.59ZM68.62,70a1.42,1.42,0,0,0-.39-.14.87.87,0,0,0-.36,0,1.72,1.72,0,0,0-.84.47,4.38,4.38,0,0,0-.82,1.07,4.58,4.58,0,0,0-.49,1.23,3,3,0,0,0-.08,1.07.86.86,0,0,0,.19.46.43.43,0,0,0,.37.1c.43-.07.85-.47,1.27-1.18A13.76,13.76,0,0,0,68.62,70Z"/><path class="cls-5" d="M72.12,74a3.49,3.49,0,0,1-.74.42,6.6,6.6,0,0,1-1,.28l.12-.93a3.24,3.24,0,0,0,.64-.19,2.27,2.27,0,0,0,.48-.29l-.14-.37c0-.11-.06-.21-.08-.31a5.35,5.35,0,0,1,0-1.48,13.53,13.53,0,0,1,.43-2l.06-.18c.2-.69.43-1,.7-1.1a1.61,1.61,0,0,1,.79.07c.25.09.39.21.41.37a2,2,0,0,1-.16.65c-.13.36-.23.69-.31,1-.18.67-.31,1.23-.39,1.69a3.41,3.41,0,0,0,0,1.08.55.55,0,0,0,.19.37.42.42,0,0,0,.37.1c.37-.06.74-.44,1.1-1.14a6.09,6.09,0,0,0,.65-2.4.71.71,0,0,1-.54-.18.94.94,0,0,1-.28-.59,1.15,1.15,0,0,1,.14-.83.9.9,0,0,1,.64-.43.92.92,0,0,1,.77.19,1.29,1.29,0,0,1,.39.8,4.42,4.42,0,0,1-.12,1.64,9,9,0,0,1-.73,2,4.81,4.81,0,0,1-1,1.43,2.27,2.27,0,0,1-1.2.59,2.17,2.17,0,0,1-.72,0A.92.92,0,0,1,72.12,74Z"/><path class="cls-5" d="M76.4,73.72l.1-.92a1.66,1.66,0,0,0,1.19-1.07,9.43,9.43,0,0,0,.6-2.89c0-.21,0-.47,0-.79a1.19,1.19,0,0,1,1.14-1.2.89.89,0,0,1,.41,0,.24.24,0,0,1,.17.19,2.68,2.68,0,0,1-.1.8c-.09.41-.15.72-.19.94l-.32,2v.08a3.7,3.7,0,0,0-.1.93.42.42,0,0,0,.25.35,2,2,0,0,0,.78,0l-.1.92-.23,0a3,3,0,0,1-1.32,0,.94.94,0,0,1-.62-.62,2.74,2.74,0,0,1-.73.81A2.59,2.59,0,0,1,76.4,73.72Zm3.11-8.92a.86.86,0,0,1-.63-.11.79.79,0,0,1-.3-.55,1.21,1.21,0,0,1,.17-.88,1,1,0,0,1,.68-.45.82.82,0,0,1,.62.13.81.81,0,0,1,.33.55,1.15,1.15,0,0,1-.17.86A1,1,0,0,1,79.51,64.8Z"/><path class="cls-5" d="M80.26,73.1l.11-.92c.41-.12.9-.61,1.46-1.46a17.61,17.61,0,0,0,1.64-3.29.77.77,0,0,1-.23-.25,1,1,0,0,1-.12-.35,1.17,1.17,0,0,1,.25-.94,1.39,1.39,0,0,1,.89-.52.85.85,0,0,1,.56.09.58.58,0,0,1,.27.44,1.11,1.11,0,0,1-.08.58,2.05,2.05,0,0,1-.4.63,5.27,5.27,0,0,1,1,1,2.56,2.56,0,0,1,.44,1.07,2.75,2.75,0,0,1,0,1,2.4,2.4,0,0,1-.36.9,1.91,1.91,0,0,0,.37.06,2.9,2.9,0,0,0,.48,0l.14,0-.11.92-.2,0a3.44,3.44,0,0,1-.71,0A3.51,3.51,0,0,1,85,72a4.64,4.64,0,0,1-.74.37,4.14,4.14,0,0,1-.68.19,3.11,3.11,0,0,1-1,0,2.19,2.19,0,0,1-.84-.34,2.82,2.82,0,0,1-.63.51A3.85,3.85,0,0,1,80.26,73.1ZM82.62,71a1.07,1.07,0,0,1,.47.22,1.34,1.34,0,0,1,.38.43,1.52,1.52,0,0,0,.87-.78,2.17,2.17,0,0,0,.15-1.31,4.05,4.05,0,0,0-.16-.62,6.6,6.6,0,0,0-.31-.7,7.41,7.41,0,0,1-.53,1.32A11.74,11.74,0,0,1,82.62,71Z"/><path class="cls-5" d="M92.67,65a16.75,16.75,0,0,1,1.79-3.68A2.83,2.83,0,0,1,96.24,60a1.34,1.34,0,0,1,1,.2,1.27,1.27,0,0,1,.53.9,16.52,16.52,0,0,1-.36,3.5q-.12.73-.18,1.14c0,.21-.08.51-.15.89a9.4,9.4,0,0,0-.21,2,.71.71,0,0,0,.37.57,1.74,1.74,0,0,0,.94.07l-.11.93-.24,0a2.92,2.92,0,0,1-1.8-.16,1.5,1.5,0,0,1-.81-1.18,12.69,12.69,0,0,1,.39-3.34q.18-.93.27-1.44c.12-.62.2-1.11.24-1.45a3.25,3.25,0,0,0,0-.76.43.43,0,0,0-.13-.28.33.33,0,0,0-.27,0,1.15,1.15,0,0,0-.6.45,8.38,8.38,0,0,0-.77,1.21c-.42.8-.79,1.58-1.12,2.36a21.21,21.21,0,0,0-.8,2.17,27.44,27.44,0,0,0-.73,2.94,2.62,2.62,0,0,1-.08.37.53.53,0,0,1-.3.23,1.94,1.94,0,0,1-.57.16,1.09,1.09,0,0,1-.51,0,.26.26,0,0,1-.18-.22A5.18,5.18,0,0,1,90.36,70c.1-.35.17-.63.23-.85a28.92,28.92,0,0,0,.68-3.53,9.65,9.65,0,0,0,.07-2.4,1,1,0,0,0-.32-.63.73.73,0,0,0-.62-.15,1.4,1.4,0,0,0-1,1,3.25,3.25,0,0,0-.2,1.87,3,3,0,0,0,.17.63,3.55,3.55,0,0,0,.32.65,1.43,1.43,0,0,1-.22.15,1.15,1.15,0,0,1-.28.08,1,1,0,0,1-.9-.28,2,2,0,0,1-.48-1.16,4.07,4.07,0,0,1,.52-2.85A2.93,2.93,0,0,1,90.41,61a1.9,1.9,0,0,1,1.52.36,2.25,2.25,0,0,1,.78,1.48,5,5,0,0,1,.06.91C92.76,64.1,92.73,64.51,92.67,65Z"/><path class="cls-5" d="M100.58,69.16a7.14,7.14,0,0,1-1.2.67,6.45,6.45,0,0,1-1.27.4l.12-.93a4.64,4.64,0,0,0,.82-.26,3.68,3.68,0,0,0,.71-.37,2.23,2.23,0,0,1-.49-.68A3.51,3.51,0,0,1,99,67a3.26,3.26,0,0,1,.53-2.42,2.83,2.83,0,0,1,2-1.31,1.43,1.43,0,0,1,1.15.23,1.53,1.53,0,0,1,.58,1,3.31,3.31,0,0,1-.29,1.8,6,6,0,0,1-1.25,1.89,1.86,1.86,0,0,0,.66.26,2.55,2.55,0,0,0,.82,0l.09,0-.11.93-.18,0a5,5,0,0,1-1.32,0A2.76,2.76,0,0,1,100.58,69.16Zm.46-1.49a3.81,3.81,0,0,0,1-1.38,2.67,2.67,0,0,0,.25-1.4.6.6,0,0,0-.21-.4.53.53,0,0,0-.42-.09,1.2,1.2,0,0,0-.87.8,2.68,2.68,0,0,0-.18,1.55,1.91,1.91,0,0,0,.16.54A1.4,1.4,0,0,0,101,67.67Z"/><path class="cls-5" d="M103.14,69.42l.11-.92a1.87,1.87,0,0,0,1.07-.68,3.78,3.78,0,0,0,.48-1.66l.23-2-.64.1a.33.33,0,0,1-.2,0,.15.15,0,0,1-.07-.12,0,0,0,0,1,0,0s0,0,0-.09l.06-.33a.27.27,0,0,1,.11-.19,1.17,1.17,0,0,1,.37-.11l.49-.07.3-2.23c0-.12,0-.28,0-.49.05-.59.28-.91.68-1a1.63,1.63,0,0,1,.7,0c.18,0,.27.13.3.27a1.89,1.89,0,0,1-.07.52c0,.14-.06.25-.07.34l-.4,2.33,1.11-.18h.2A.15.15,0,0,1,108,63a.13.13,0,0,1,0,.06v.05l-.06.33a.31.31,0,0,1-.12.2.87.87,0,0,1-.36.12l-1,.15-.3,2.21c0,.25-.06.47-.07.64a2.62,2.62,0,0,0,0,.43.66.66,0,0,0,.45.53,2.45,2.45,0,0,0,1.1.08l-.11.92-.16,0a4.53,4.53,0,0,1-1.5,0,1.73,1.73,0,0,1-1-.46,3.37,3.37,0,0,1-.84.71A3.26,3.26,0,0,1,103.14,69.42Z"/><path class="cls-6" d="M33.87,29.36a8.91,8.91,0,0,0-4.35,3.12,9.9,9.9,0,0,0,1.26,12.71,7.42,7.42,0,0,1,3.89-7,8.72,8.72,0,0,1,7.91.12,5.79,5.79,0,0,1,2.91,3.88c.35,1.14.28,1.44,1.24,1.95s2.45.54,3.58,1.22c4.85,2.92,5.84,14,1.38,17.7a8.43,8.43,0,0,1-4,1.62,26.07,26.07,0,0,1-11.42-.47,10.26,10.26,0,0,1-4.75-2.45c-3.12-3.16-3.75-10.11-1.93-14.09,1.16-2.55,4.26-3.47,6.69-4.18a17.69,17.69,0,0,1,8.21-.41.86.86,0,0,0,.55,0,.82.82,0,0,0,.35-.49,10.59,10.59,0,0,0-3.74-12.36A9.13,9.13,0,0,0,33.87,29.36Z"/><path class="cls-6" d="M30.85,43.73a7.07,7.07,0,0,1,4.93-4,11.24,11.24,0,0,1,9.67,1.42"/><path class="cls-6" d="M31.9,54l-3-.6c6.5,1.16,13,1.12,19.62,1,2.62-.06,3.69-.9,5.72-2.29"/><path class="cls-6" d="M55.23,47.72a12.26,12.26,0,0,1,.61-1.89l.78-1a9.79,9.79,0,0,1,7-4,44.21,44.21,0,0,1,6.81-.16,36.21,36.21,0,0,1,7.14.44,9.36,9.36,0,0,1,6,3.72,12.25,12.25,0,0,1,1.62,6.38,14.59,14.59,0,0,1-.32,4.07,8.74,8.74,0,0,1-4.74,5.77c-2.84,1.29-6.08.83-9.17.77-3.9-.08-8.09.45-11.47-1.61C55.5,57.83,54.15,52.29,55.23,47.72Z"/><path class="cls-6" d="M60.66,43.26a7.65,7.65,0,0,1,3.22-.68l7.88-.06a16.32,16.32,0,0,1,5.49.59,8.9,8.9,0,0,1-.47,16.79,15.87,15.87,0,0,1-4.35.41l-5.63,0c-3.95,0-8-.52-10-4.68a9.8,9.8,0,0,1-.41-6.93A8.26,8.26,0,0,1,60.66,43.26Z"/><path class="cls-6" d="M61.38,45a6.5,6.5,0,0,1,2.52-.55l6.15-.12a22.59,22.59,0,0,1,5.26.3,6.47,6.47,0,0,1,5.45,7,8.87,8.87,0,0,1-.33,1.92c-1.28,4.28-6,4.82-9.64,4.82H65.64a12.5,12.5,0,0,1-2.8-.21A7.1,7.1,0,0,1,61.38,45Z"/><path class="cls-6" d="M82.6,59.46c.77,1,2.62,1,3.75,1a9,9,0,0,0,6.18-2.54,8.57,8.57,0,0,0,2.54-6.36,9.83,9.83,0,0,0-3.62-6.7,8.19,8.19,0,0,0-9-1.13"/><path class="cls-6" d="M83,43.91a5.47,5.47,0,0,1,3.94,3,9.18,9.18,0,0,1,.7,3.89,10.19,10.19,0,0,1-.71,4.07,4.8,4.8,0,0,1-2.84,2.73"/><path class="cls-6" d="M83.57,44.85c1.51.68,2.3,2.74,2.52,4.33a11.93,11.93,0,0,1-.28,4.12,15.12,15.12,0,0,1-1.75,4.21"/><path class="cls-7" d="M27.45,80.33a3.31,3.31,0,0,1-1.1,1,4.88,4.88,0,0,1-1.55.52A3,3,0,0,1,23,81.64a1.47,1.47,0,0,1-.84-1.13,1.71,1.71,0,0,1,.41-1.45,2.43,2.43,0,0,1,1.53-.78,3.87,3.87,0,0,1,1.27,0,5.27,5.27,0,0,1,1.35.43,13.93,13.93,0,0,0,.27-1.5c.08-.6.17-1.39.25-2.38a2.44,2.44,0,0,1-1.33-.27,1.2,1.2,0,0,1-.58-.87,1.16,1.16,0,0,1,.08-.71.69.69,0,0,1,.46-.36,1.38,1.38,0,0,0,.53.74,1.86,1.86,0,0,0,1,.26,4.65,4.65,0,0,1,.78-2.19,2.29,2.29,0,0,1,1.54-1,1.65,1.65,0,0,1,1.18.17,1.28,1.28,0,0,1,.56.92,2.23,2.23,0,0,1-.54,1.82,4.12,4.12,0,0,1-2,1.22,17.67,17.67,0,0,1-.23,2.7,9.12,9.12,0,0,1-.57,2,4.5,4.5,0,0,0,1.31.5,4.21,4.21,0,0,0,1.36.08l-.11.92h-.07a4.66,4.66,0,0,1-1.58,0A5.14,5.14,0,0,1,27.45,80.33Zm-1.21-.58a3.63,3.63,0,0,0-1-.33,3.18,3.18,0,0,0-1,0,1.44,1.44,0,0,0-.76.32.61.61,0,0,0-.22.57.59.59,0,0,0,.41.48,1.73,1.73,0,0,0,.93,0,2.36,2.36,0,0,0,.93-.34A2.73,2.73,0,0,0,26.24,79.75Zm2.69-6.42a2.64,2.64,0,0,0,1.12-.83,1.27,1.27,0,0,0,.35-1,.41.41,0,0,0-.17-.29.45.45,0,0,0-.33-.06c-.26,0-.48.25-.65.62A4.9,4.9,0,0,0,28.93,73.33Z"/><path class="cls-7" d="M35.33,75.92a.83.83,0,0,1-.54-.17.71.71,0,0,1-.26-.48,1.16,1.16,0,0,1,.14-.81.86.86,0,0,1,.62-.41.78.78,0,0,1,.74.24,1.71,1.71,0,0,1,.41.95,5.36,5.36,0,0,1,0,1.65A5.73,5.73,0,0,1,36,78.51a3.93,3.93,0,0,1-.87,1.27,2.24,2.24,0,0,1-1.15.55,2.61,2.61,0,0,1-.83,0,1.63,1.63,0,0,1-.66-.28,4.67,4.67,0,0,1-.84.48,5.36,5.36,0,0,1-1,.29l.12-.92a3.11,3.11,0,0,0,.63-.2,2.09,2.09,0,0,0,.49-.28,2.17,2.17,0,0,1-.19-.44,2.44,2.44,0,0,1-.13-.5A4.1,4.1,0,0,1,31.61,77a4.62,4.62,0,0,1,.59-1.51,3.8,3.8,0,0,1,.95-1,2.6,2.6,0,0,1,1.13-.52.33.33,0,0,1,.24,0,.18.18,0,0,1,.1.15c0,.09-.06.26-.24.5s-.32.45-.41.6A7.35,7.35,0,0,0,33.21,77a4.27,4.27,0,0,0-.1,1.68.92.92,0,0,0,.26.54.53.53,0,0,0,.47.13c.46-.07.85-.46,1.17-1.18A3.93,3.93,0,0,0,35.33,75.92Z"/><path class="cls-7" d="M36.63,79.88l.11-.92c.41-.12.9-.61,1.46-1.46a18.93,18.93,0,0,0,1.64-3.29A.71.71,0,0,1,39.6,74a1.2,1.2,0,0,1-.11-.35,1.13,1.13,0,0,1,.25-.94,1.34,1.34,0,0,1,.89-.52.82.82,0,0,1,.55.09.58.58,0,0,1,.27.44,1.09,1.09,0,0,1-.07.58,2.26,2.26,0,0,1-.4.63,5.56,5.56,0,0,1,1,1A2.7,2.7,0,0,1,42.45,76a3,3,0,0,1,0,1,2.41,2.41,0,0,1-.37.9,2,2,0,0,0,.37.06,3.1,3.1,0,0,0,.49,0l.13,0-.11.92-.19,0a3.59,3.59,0,0,1-.72,0,3.64,3.64,0,0,1-.71-.12,4.56,4.56,0,0,1-.73.37,4.24,4.24,0,0,1-.69.19,3,3,0,0,1-1,0,2.12,2.12,0,0,1-.84-.34,3.19,3.19,0,0,1-.64.51A3.76,3.76,0,0,1,36.63,79.88ZM39,77.81a1.06,1.06,0,0,1,.48.22,1.31,1.31,0,0,1,.37.43,1.52,1.52,0,0,0,.87-.78,2,2,0,0,0,.15-1.31,3.15,3.15,0,0,0-.16-.62c-.08-.21-.18-.45-.3-.7a7.41,7.41,0,0,1-.53,1.32A12.37,12.37,0,0,1,39,77.81Z"/><path class="cls-7" d="M50.18,80.86a2.26,2.26,0,0,1-1.92-.5,3.36,3.36,0,0,1-1-2.06,10.07,10.07,0,0,1,.25-3.81,15.1,15.1,0,0,1,1.64-4.14,10.27,10.27,0,0,1,2-2.52,4.11,4.11,0,0,1,2-1.13,1.68,1.68,0,0,1,1.3.25,1.82,1.82,0,0,1,.65,1.21A3,3,0,0,1,55,69.62a4.14,4.14,0,0,1-.82,1.4,3.79,3.79,0,0,1-.74.65,1.62,1.62,0,0,1-.64.32c-.13,0-.27,0-.44-.22A.9.9,0,0,1,52,71.3c0-.11.11-.24.37-.38a4.85,4.85,0,0,0,.65-.44,2.48,2.48,0,0,0,.72-1,2,2,0,0,0,.13-1.09.91.91,0,0,0-.24-.53.55.55,0,0,0-.48-.12,2.35,2.35,0,0,0-1.26.91,11,11,0,0,0-1.37,2.21,18.19,18.19,0,0,0-1.4,3.92A8.67,8.67,0,0,0,49,78.08a1.86,1.86,0,0,0,.42,1,.9.9,0,0,0,.82.23,2.49,2.49,0,0,0,1.3-.71,6.39,6.39,0,0,0,1.19-1.7,3.09,3.09,0,0,0,.2-.46c.11-.27.21-.41.32-.43a.64.64,0,0,1,.45.15.66.66,0,0,1,.29.37,1,1,0,0,1-.11.49,6.64,6.64,0,0,1-.4.82A8.58,8.58,0,0,1,51.87,80,3.31,3.31,0,0,1,50.18,80.86Z"/><path class="cls-7" d="M56,76.11a2,2,0,0,1-.6.57,2.68,2.68,0,0,1-.85.32l.12-.92a1.55,1.55,0,0,0,1-.75,6.05,6.05,0,0,0,.56-2l.68-4.49c.06-.32.1-.72.15-1.19.08-.82.37-1.27.88-1.35a2.18,2.18,0,0,1,.73,0,.25.25,0,0,1,.23.2,2.83,2.83,0,0,1-.13.85l-.09.41-1.27,5.74a11,11,0,0,1,1.49-2.71,2.52,2.52,0,0,1,1.55-1,.9.9,0,0,1,.68.11.79.79,0,0,1,.33.57A9.85,9.85,0,0,1,61,72.91l-.09.42a5.06,5.06,0,0,0-.14.77,1.81,1.81,0,0,0,0,.5.36.36,0,0,0,.24.31,2.14,2.14,0,0,0,.76,0l-.11.92-.15,0a3.33,3.33,0,0,1-1.64,0,1,1,0,0,1-.65-.82,3.31,3.31,0,0,1,0-.89c.06-.41.18-.94.34-1.58l0-.13a4,4,0,0,0,.19-1,.22.22,0,0,0-.08-.15.27.27,0,0,0-.19,0c-.25,0-.6.44-1,1.18a10,10,0,0,0-1,2.61c0,.2-.1.44-.16.73a1.07,1.07,0,0,1-1,.92,1,1,0,0,1-.38,0,.18.18,0,0,1-.13-.16.6.6,0,0,1,0-.18A1.67,1.67,0,0,1,56,76.11Z"/><path class="cls-7" d="M67,72.56a6.67,6.67,0,0,1-1.11,2,2.33,2.33,0,0,1-1.39.82,1.88,1.88,0,0,1-.67,0,1,1,0,0,1-.49-.24,2.85,2.85,0,0,1-.71.4,6.9,6.9,0,0,1-1,.27l.12-.93a3.13,3.13,0,0,0,.63-.19,2.11,2.11,0,0,0,.49-.29l-.09-.28c0-.09,0-.2-.06-.31a3.4,3.4,0,0,1,0-1.22,5.74,5.74,0,0,1,.46-1.38,5.18,5.18,0,0,1,1.23-1.67,3.19,3.19,0,0,1,1.58-.76,2.13,2.13,0,0,1,.76,0,1.81,1.81,0,0,1,.65.3l.05-.31a.73.73,0,0,1,.11-.37.45.45,0,0,1,.24-.11,1.86,1.86,0,0,1,.82,0c.25.06.38.17.4.31a3,3,0,0,1-.18.65c-.13.4-.24.78-.33,1.13a15.54,15.54,0,0,0-.38,1.8,4.06,4.06,0,0,0,0,1.11.41.41,0,0,0,.23.34,2.1,2.1,0,0,0,.78,0l-.12.92-.12,0a3.52,3.52,0,0,1-1.49,0,.75.75,0,0,1-.54-.67,2.52,2.52,0,0,1,0-.57C66.91,73.23,67,72.93,67,72.56ZM67.28,70a1.07,1.07,0,0,0-.38-.15.93.93,0,0,0-.37,0,1.67,1.67,0,0,0-.84.48,4.57,4.57,0,0,0-.82,1.06,4.9,4.9,0,0,0-.48,1.23,2.78,2.78,0,0,0-.08,1.08.86.86,0,0,0,.19.45.39.39,0,0,0,.37.1c.43-.07.85-.46,1.26-1.18A13.18,13.18,0,0,0,67.28,70Z"/><path class="cls-7" d="M70.78,74a3.26,3.26,0,0,1-.74.42,5.48,5.48,0,0,1-1,.28l.12-.92a4.4,4.4,0,0,0,.64-.2,1.92,1.92,0,0,0,.48-.29c-.06-.13-.1-.25-.14-.36a2.37,2.37,0,0,1-.08-.31,5.42,5.42,0,0,1,0-1.49,12.57,12.57,0,0,1,.43-2l.06-.18c.2-.69.43-1,.69-1.09a1.44,1.44,0,0,1,.8.07c.25.08.39.21.41.36a2.14,2.14,0,0,1-.17.65c-.12.37-.22.69-.3,1a13.41,13.41,0,0,0-.39,1.69,3.75,3.75,0,0,0,0,1.07.61.61,0,0,0,.2.38.44.44,0,0,0,.37.1c.37-.06.73-.44,1.1-1.14a6.08,6.08,0,0,0,.64-2.4.71.71,0,0,1-.54-.18,1,1,0,0,1-.27-.6,1.11,1.11,0,0,1,.14-.83.85.85,0,0,1,.64-.42.89.89,0,0,1,.76.18,1.28,1.28,0,0,1,.4.8,4.41,4.41,0,0,1-.12,1.64,8.83,8.83,0,0,1-.73,2,4.68,4.68,0,0,1-1,1.43,2.29,2.29,0,0,1-1.2.6,1.92,1.92,0,0,1-.72,0A.85.85,0,0,1,70.78,74Z"/><path class="cls-7" d="M75.06,73.7l.11-.93a1.68,1.68,0,0,0,1.19-1.06A9.56,9.56,0,0,0,77,68.82c0-.21,0-.48,0-.8a1.17,1.17,0,0,1,1.14-1.19.74.74,0,0,1,.4,0,.26.26,0,0,1,.18.2,2.86,2.86,0,0,1-.11.8q-.14.6-.18.93l-.32,2,0,.08a4.11,4.11,0,0,0-.09.93.4.4,0,0,0,.25.35,1.81,1.81,0,0,0,.78,0l-.11.92-.23,0a3,3,0,0,1-1.31,0,.94.94,0,0,1-.62-.62,3,3,0,0,1-.73.8A2.58,2.58,0,0,1,75.06,73.7Zm3.12-8.92a.81.81,0,0,1-.63-.12.77.77,0,0,1-.3-.55,1.14,1.14,0,0,1,.17-.87,1,1,0,0,1,.68-.46.81.81,0,0,1,1,.69,1.16,1.16,0,0,1-.18.86A1,1,0,0,1,78.18,64.78Z"/><path class="cls-7" d="M78.93,73.07l.11-.92c.41-.12.9-.6,1.46-1.45a19,19,0,0,0,1.64-3.29.84.84,0,0,1-.24-.26,1.11,1.11,0,0,1-.11-.35,1.17,1.17,0,0,1,.25-.94,1.38,1.38,0,0,1,.89-.52.81.81,0,0,1,.55.09.67.67,0,0,1,.28.44,1.09,1.09,0,0,1-.08.58,2.17,2.17,0,0,1-.4.64,5.26,5.26,0,0,1,1,1,2.56,2.56,0,0,1,.44,1.07,3,3,0,0,1,0,1,2.43,2.43,0,0,1-.36.9,1.06,1.06,0,0,0,.37.06,2.12,2.12,0,0,0,.48,0l.14,0-.12.93-.19,0a3.56,3.56,0,0,1-.72,0,3.6,3.6,0,0,1-.71-.11,4.48,4.48,0,0,1-.73.36,2.75,2.75,0,0,1-.69.19,2.8,2.8,0,0,1-1,0,2.11,2.11,0,0,1-.84-.33,3.15,3.15,0,0,1-.64.5A3.31,3.31,0,0,1,78.93,73.07ZM81.28,71a1.17,1.17,0,0,1,.48.22,1.42,1.42,0,0,1,.37.43,1.57,1.57,0,0,0,.88-.78,2.08,2.08,0,0,0,.14-1.31A3.07,3.07,0,0,0,83,69a6.48,6.48,0,0,0-.3-.71,7.41,7.41,0,0,1-.53,1.32A12.37,12.37,0,0,1,81.28,71Z"/><path class="cls-7" d="M91.34,65a16.31,16.31,0,0,1,1.79-3.68A2.88,2.88,0,0,1,94.91,60a1.43,1.43,0,0,1,1,.2,1.35,1.35,0,0,1,.53.91,18.06,18.06,0,0,1-.36,3.49c-.08.5-.14.87-.18,1.14s-.09.51-.15.89a9.42,9.42,0,0,0-.21,2,.72.72,0,0,0,.36.57,1.91,1.91,0,0,0,1,.07l-.11.92-.25,0a2.94,2.94,0,0,1-1.8-.16,1.5,1.5,0,0,1-.8-1.18,12.59,12.59,0,0,1,.39-3.33q.18-.93.27-1.44c.12-.63.2-1.11.23-1.45a3,3,0,0,0,0-.77.43.43,0,0,0-.13-.27.31.31,0,0,0-.27-.06,1.11,1.11,0,0,0-.6.45,7.76,7.76,0,0,0-.77,1.22c-.42.79-.8,1.58-1.12,2.36a21.1,21.1,0,0,0-.8,2.16,28.22,28.22,0,0,0-.73,3c0,.22-.07.34-.08.36a.63.63,0,0,1-.3.24,2.27,2.27,0,0,1-.58.16,1.2,1.2,0,0,1-.5,0,.27.27,0,0,1-.18-.23A5.06,5.06,0,0,1,89,70c.09-.35.17-.64.22-.85a29.45,29.45,0,0,0,.69-3.53,9.08,9.08,0,0,0,.06-2.4,1,1,0,0,0-.31-.64.73.73,0,0,0-.62-.14,1.36,1.36,0,0,0-1,.94,3.29,3.29,0,0,0,0,2.5,3.55,3.55,0,0,0,.31.66.83.83,0,0,1-.22.14.77.77,0,0,1-.27.08,1,1,0,0,1-.9-.28,2.09,2.09,0,0,1-.49-1.15A4.1,4.1,0,0,1,87,62.48,2.9,2.9,0,0,1,89.08,61a1.84,1.84,0,0,1,1.51.35,2.28,2.28,0,0,1,.79,1.48,5.15,5.15,0,0,1,.05.92A10,10,0,0,1,91.34,65Z"/><path class="cls-7" d="M99.25,69.13A6.27,6.27,0,0,1,98,69.8a6.36,6.36,0,0,1-1.26.4l.12-.92a5.65,5.65,0,0,0,.82-.26,6,6,0,0,0,.71-.37,2,2,0,0,1-.49-.69,3.31,3.31,0,0,1-.28-1,3.21,3.21,0,0,1,.53-2.42,2.83,2.83,0,0,1,2-1.31,1.48,1.48,0,0,1,1.15.24,1.52,1.52,0,0,1,.58,1,3.3,3.3,0,0,1-.29,1.8,6.15,6.15,0,0,1-1.25,1.89,1.71,1.71,0,0,0,.66.27,2.59,2.59,0,0,0,.82,0h.09l-.11.92-.18,0a4.68,4.68,0,0,1-1.33,0A2.76,2.76,0,0,1,99.25,69.13Zm.46-1.49a3.81,3.81,0,0,0,1-1.38,2.63,2.63,0,0,0,.25-1.39.6.6,0,0,0-.21-.41.55.55,0,0,0-.43-.08,1.19,1.19,0,0,0-.86.79,2.53,2.53,0,0,0-.18,1.55,1.91,1.91,0,0,0,.16.54A1,1,0,0,0,99.71,67.64Z"/><path class="cls-7" d="M101.81,69.39l.1-.92a1.81,1.81,0,0,0,1.08-.68,3.89,3.89,0,0,0,.47-1.66l.24-2-.64.11a.39.39,0,0,1-.2,0,.14.14,0,0,1-.08-.12v0a.32.32,0,0,1,0-.08l0-.33a.33.33,0,0,1,.11-.2,1.36,1.36,0,0,1,.37-.1l.49-.08.3-2.22a4.16,4.16,0,0,0,0-.49c0-.59.27-.92.68-1a1.84,1.84,0,0,1,.7,0c.17,0,.27.14.29.27a1.6,1.6,0,0,1-.07.53q0,.21-.06.33L105.3,63l1.11-.18a.37.37,0,0,1,.19,0,.12.12,0,0,1,.09.1.13.13,0,0,0,0,.06.13.13,0,0,1,0,.06l-.06.33a.31.31,0,0,1-.11.2,1.18,1.18,0,0,1-.36.11l-1,.15-.31,2.22c0,.25,0,.46-.06.64a1.87,1.87,0,0,0,0,.43.64.64,0,0,0,.45.52,2.43,2.43,0,0,0,1.1.08l-.11.92-.16,0a4.85,4.85,0,0,1-1.51,0,1.61,1.61,0,0,1-1-.46,3.82,3.82,0,0,1-.84.72A3.23,3.23,0,0,1,101.81,69.39Z"/><path class="cls-8" d="M97.76,43.93c5.71-.91,8.12,7.3,2.79,9.59"/><path class="cls-9" d="M96.41,45.94c3.83-.76,5.66,4.72,2.12,6.39"/><path class="cls-2" d="M95.47,47.66a2.36,2.36,0,0,1,1.47,4.42"/><path class="cls-8" d="M28.68,26.56c-.46-5.76,7.92-7.51,9.77-2"/><path class="cls-9" d="M30.44,27.51c-.26-3.89,5.41-5,6.61-1.27"/><path class="cls-2" d="M32.07,28.4a2.11,2.11,0,0,1,4-1.26"/></g></g></svg>